<svg width="245" height="245" viewBox="0 0 245 245" fill="none" xmlns="http://www.w3.org/2000/svg">
<g id="Vector">
<path d="M112.892 16.3661V0.210373H115.193V2.7347H115.394C115.717 1.87221 116.239 1.20258 116.959 0.725754C117.679 0.241928 118.543 0 119.552 0C120.575 0 121.426 0.241928 122.105 0.725754C122.792 1.20258 123.327 1.87221 123.71 2.7347H123.872C124.268 1.90025 124.864 1.23763 125.658 0.74678C126.452 0.248932 127.404 0 128.514 0C129.9 0 131.033 0.452286 131.915 1.35684C132.796 2.25438 133.237 3.65327 133.237 5.55353V16.3661H130.855V5.55353C130.855 4.36148 130.542 3.50952 129.916 2.99765C129.291 2.48576 128.554 2.22983 127.706 2.22983C126.616 2.22983 125.772 2.57343 125.173 3.2606C124.575 3.94077 124.275 4.80324 124.275 5.84802V16.3661H121.853V5.3011C121.853 4.38252 121.567 3.64275 120.995 3.08179C120.424 2.51381 119.687 2.22983 118.785 2.22983C118.166 2.22983 117.588 2.40163 117.05 2.74522C116.518 3.08881 116.087 3.56561 115.758 4.17566C115.435 4.7787 115.273 5.47641 115.273 6.26877V16.3661H112.892Z" fill="white"/>
<path d="M144.393 19.2331C143.435 19.0052 142.608 18.6105 141.909 18.0489C141.213 17.4803 140.713 16.7826 140.411 15.9556C140.111 15.1217 140.073 14.192 140.298 13.1666C140.495 12.2642 140.826 11.5733 141.29 11.0939C141.755 10.6076 142.308 10.2717 142.949 10.0862C143.59 9.9006 144.272 9.81113 144.995 9.81773C145.727 9.81906 146.454 9.85535 147.176 9.92659C148.122 10.022 148.886 10.1068 149.47 10.181C150.063 10.25 150.507 10.237 150.804 10.1422C151.107 10.0489 151.302 9.80746 151.387 9.4178L151.405 9.33577C151.626 8.32402 151.533 7.47466 151.124 6.7877C150.722 6.10231 149.987 5.63245 148.918 5.37811C147.809 5.11441 146.885 5.16061 146.144 5.51671C145.404 5.8728 144.843 6.30753 144.461 6.82092L142.437 5.4763C143.04 4.61285 143.728 3.99252 144.501 3.61534C145.282 3.23286 146.085 3.02852 146.912 3.00227C147.747 2.97075 148.545 3.0455 149.306 3.2265C149.792 3.34196 150.336 3.5361 150.938 3.80894C151.549 4.07652 152.109 4.46509 152.619 4.97467C153.135 5.48582 153.508 6.16078 153.738 6.99954C153.969 7.83832 153.947 8.88321 153.673 10.1342L151.4 20.5116L149.078 19.9592L149.546 17.8264L149.427 17.7983C149.195 18.1026 148.853 18.406 148.4 18.7083C147.947 19.0105 147.386 19.2258 146.716 19.3542C146.046 19.4825 145.272 19.4421 144.393 19.2331ZM145.223 17.1434C146.142 17.3619 146.957 17.358 147.669 17.1318C148.387 16.9071 148.972 16.5357 149.424 16.0174C149.882 15.5006 150.183 14.9141 150.327 14.2579L150.812 12.0429C150.687 12.1426 150.446 12.2039 150.089 12.2268C149.74 12.2445 149.341 12.2395 148.891 12.2117C148.45 12.1786 148.02 12.1411 147.601 12.099C147.191 12.0517 146.857 12.0155 146.6 11.9904C145.979 11.9289 145.386 11.928 144.82 11.9877C144.263 12.0422 143.784 12.2124 143.384 12.4982C142.991 12.7788 142.727 13.2268 142.593 13.842C142.408 14.6829 142.568 15.3896 143.07 15.9623C143.581 16.5297 144.299 16.9234 145.223 17.1434Z" fill="white"/>
<path d="M166.642 20.3185L167.884 17.5331L168.321 17.7522L177.426 14.337L180.081 15.6696L170.401 19.263L170.219 19.1717L166.642 20.3185ZM162.19 24.6213L171.157 5.21356L173.303 6.29057L164.336 25.6983L162.19 24.6213ZM171.064 29.0753L168.936 19.1351L171.182 18.3477L173.792 30.4444L171.064 29.0753Z" fill="white"/>
<path d="M186.109 40.0499C184.942 39.0794 184.14 37.9735 183.704 36.7324C183.278 35.4901 183.207 34.1936 183.492 32.8429C183.786 31.4911 184.428 30.1683 185.418 28.8745C186.408 27.5807 187.507 26.6284 188.714 26.0176C189.931 25.4057 191.159 25.1617 192.398 25.2856C193.647 25.4084 194.818 25.9245 195.912 26.8339C196.543 27.3585 197.083 27.9863 197.53 28.7171C197.978 29.4479 198.265 30.2698 198.393 31.1829C198.524 32.0905 198.432 33.0719 198.115 34.127C197.798 35.1821 197.189 36.2989 196.287 37.4776L195.658 38.3L186.316 30.5354L187.6 28.8578L195.048 35.0485C195.593 34.3358 195.943 33.5862 196.097 32.7997C196.257 32.0175 196.211 31.257 195.958 30.5183C195.711 29.7839 195.251 29.1368 194.578 28.5772C193.836 27.9608 193.048 27.6193 192.212 27.5527C191.386 27.4851 190.596 27.6353 189.841 28.0034C189.086 28.3714 188.442 28.9036 187.91 29.5998L187.054 30.7182C186.324 31.6721 185.863 32.6119 185.671 33.5376C185.489 34.4621 185.549 35.3332 185.853 36.1507C186.161 36.9628 186.691 37.6814 187.443 38.3066C187.933 38.7132 188.429 39.0091 188.932 39.1945C189.446 39.3788 189.958 39.4458 190.469 39.3957C190.985 39.3401 191.49 39.1586 191.983 38.8512L193.379 40.8727C192.704 41.3513 191.957 41.6459 191.141 41.7568C190.329 41.8621 189.492 41.7758 188.629 41.498C187.77 41.2146 186.93 40.7319 186.109 40.0499Z" fill="white"/>
<path d="M213.615 75.9538C213.189 75.0314 212.969 74.1107 212.955 73.1916C212.947 72.2694 213.159 71.4275 213.591 70.6658C214.029 69.901 214.703 69.2905 215.612 68.8341C216.412 68.4325 217.137 68.2713 217.786 68.3503C218.441 68.4263 219.037 68.6676 219.576 69.0743C220.115 69.4809 220.607 69.9809 221.053 70.5743C221.508 71.1709 221.934 71.7859 222.332 72.4193C222.849 73.2491 223.262 73.925 223.571 74.4473C223.888 74.9728 224.175 75.3269 224.432 75.5096C224.691 75.6987 224.993 75.7065 225.338 75.5331L225.411 75.4966C226.308 75.0463 226.887 74.4406 227.148 73.6794C227.411 72.9245 227.305 72.0322 226.829 71.0024C226.336 69.9347 225.725 69.2102 224.996 68.8288C224.267 68.4475 223.591 68.2614 222.968 68.2706L222.715 65.7828C223.739 65.7359 224.633 65.9097 225.398 66.3041C226.171 66.7019 226.826 67.2295 227.361 67.8869C227.905 68.5477 228.347 69.2445 228.685 69.9773C228.901 70.4448 229.095 71.0092 229.266 71.6705C229.446 72.335 229.504 73.0337 229.439 73.7666C229.378 74.5058 229.104 75.2307 228.619 75.9414C228.133 76.6521 227.336 77.2858 226.226 77.8426L217.025 82.4609L215.992 80.2245L217.883 79.2753L217.83 79.1615C217.457 79.162 217.016 79.0721 216.507 78.8917C215.998 78.7113 215.487 78.3883 214.973 77.9224C214.459 77.4566 214.006 76.8004 213.615 75.9538ZM215.7 75.3275C216.109 76.2119 216.62 76.8737 217.234 77.3129C217.85 77.7584 218.494 78.0036 219.164 78.0484C219.837 78.0996 220.465 77.9792 221.047 77.6871L223.011 76.7014C222.858 76.6614 222.662 76.5031 222.422 76.2265C222.191 75.9532 221.946 75.6249 221.687 75.2414C221.436 74.8611 221.196 74.4874 220.967 74.12C220.746 73.7559 220.565 73.4615 220.424 73.2366C220.083 72.6919 219.714 72.2079 219.316 71.7846C218.928 71.3646 218.502 71.0805 218.038 70.9322C217.582 70.7871 217.082 70.8515 216.536 71.1253C215.791 71.4995 215.36 72.0699 215.244 72.8365C215.136 73.6064 215.289 74.4367 215.7 75.3275Z" fill="white"/>
<path d="M229.984 119.616L232.93 119.574V120.079L239.833 127.147V130.218L232.527 122.687V122.477L229.984 119.616ZM224.332 117.302H245V119.784H224.332V117.302ZM224.332 127.567L232.002 121.257L233.657 123.024L224.332 130.723V127.567Z" fill="white"/>
<path d="M221.581 145.318C221.8 144.32 222.179 143.457 222.718 142.729C223.263 142.003 223.933 141.483 224.726 141.168C225.526 140.855 226.418 140.815 227.402 141.049C228.268 141.255 228.931 141.6 229.391 142.083C229.857 142.568 230.179 143.145 230.358 143.813C230.536 144.481 230.621 145.192 230.615 145.946C230.614 146.708 230.579 147.466 230.511 148.219C230.419 149.204 230.338 150.001 230.267 150.61C230.2 151.227 230.213 151.69 230.304 152C230.393 152.316 230.625 152.518 230.999 152.607L231.077 152.626C232.048 152.857 232.863 152.759 233.522 152.334C234.18 151.915 234.631 151.148 234.875 150.034C235.128 148.878 235.083 147.915 234.742 147.143C234.4 146.371 233.983 145.787 233.49 145.389L234.781 143.279C235.609 143.908 236.204 144.625 236.566 145.43C236.933 146.244 237.129 147.082 237.154 147.944C237.185 148.814 237.113 149.646 236.939 150.439C236.828 150.944 236.642 151.511 236.38 152.14C236.124 152.776 235.751 153.36 235.262 153.891C234.771 154.429 234.124 154.818 233.319 155.058C232.514 155.298 231.512 155.275 230.311 154.99L220.355 152.621L220.885 150.201L222.931 150.688L222.958 150.565C222.666 150.323 222.375 149.966 222.085 149.494C221.795 149.022 221.588 148.437 221.465 147.739C221.342 147.041 221.381 146.234 221.581 145.318ZM223.586 146.183C223.377 147.14 223.38 147.99 223.597 148.732C223.813 149.481 224.169 150.091 224.667 150.562C225.163 151.039 225.725 151.353 226.355 151.503L228.48 152.008C228.384 151.877 228.326 151.626 228.304 151.254C228.287 150.89 228.291 150.474 228.318 150.006C228.35 149.546 228.386 149.098 228.426 148.662C228.472 148.234 228.506 147.886 228.53 147.618C228.589 146.971 228.59 146.352 228.533 145.763C228.481 145.183 228.317 144.684 228.043 144.266C227.774 143.857 227.344 143.582 226.754 143.441C225.947 143.249 225.269 143.415 224.72 143.939C224.175 144.471 223.797 145.219 223.586 146.183Z" fill="white"/>
<path d="M215.596 165.632L229.562 172.642L228.563 174.803L226.454 173.744L226.384 173.895C226.952 174.508 227.291 175.269 227.4 176.18C227.51 177.091 227.363 177.982 226.96 178.854C226.884 179.019 226.786 179.222 226.666 179.466C226.546 179.709 226.451 179.891 226.381 180.011L224.198 178.916C224.252 178.849 224.359 178.689 224.521 178.436C224.686 178.192 224.837 177.921 224.974 177.624C225.301 176.917 225.451 176.213 225.423 175.514C225.398 174.825 225.211 174.194 224.863 173.623C224.518 173.06 224.03 172.621 223.4 172.305L214.562 167.869L215.596 165.632Z" fill="white"/>
<path d="M202.007 188.276C202.812 187.223 203.778 186.506 204.905 186.124C206.037 185.747 207.245 185.72 208.53 186.043C209.82 186.37 211.106 187.067 212.39 188.134C213.663 189.192 214.593 190.338 215.181 191.571C215.769 192.804 216.008 194.039 215.898 195.274C215.787 196.509 215.325 197.659 214.511 198.723C213.882 199.545 213.253 200.085 212.625 200.344C211.998 200.612 211.423 200.734 210.898 200.711C210.375 200.698 209.954 200.675 209.634 200.642L209.508 200.807L215.473 205.765L213.988 207.705L197.83 194.275L199.264 192.4L201.126 193.948L201.302 193.717C201.191 193.391 201.067 192.957 200.932 192.414C200.802 191.875 200.792 191.252 200.902 190.546C201.018 189.844 201.386 189.087 202.007 188.276ZM203.478 189.929C202.882 190.708 202.574 191.527 202.552 192.388C202.535 193.253 202.767 194.114 203.248 194.971C203.733 195.832 204.434 196.643 205.349 197.403C206.254 198.155 207.15 198.676 208.038 198.966C208.932 199.26 209.774 199.296 210.563 199.074C211.358 198.856 212.058 198.352 212.662 197.562C213.291 196.74 213.613 195.887 213.628 195.002C213.643 194.127 213.411 193.266 212.932 192.419C212.454 191.582 211.788 190.809 210.936 190.101C210.074 189.384 209.185 188.87 208.27 188.558C207.357 188.256 206.485 188.204 205.654 188.401C204.824 188.608 204.099 189.118 203.478 189.929Z" fill="white"/>
<path d="M166.933 229.532L165.969 227.447L174.116 223.359L175.079 225.443L166.933 229.532Z" fill="white"/>
<path d="M132.108 228.634V244.79H129.807V242.265H129.605C129.282 243.128 128.761 243.797 128.041 244.274C127.321 244.758 126.457 245 125.448 245C124.425 245 123.574 244.758 122.894 244.274C122.208 243.797 121.673 243.128 121.29 242.265H121.128C120.731 243.1 120.136 243.762 119.342 244.253C118.548 244.751 117.596 245 116.486 245C115.1 245 113.967 244.548 113.085 243.643C112.204 242.746 111.763 241.347 111.763 239.446V228.634H114.145V239.446C114.145 240.639 114.458 241.49 115.083 242.002C115.709 242.514 116.446 242.77 117.294 242.77C118.383 242.77 119.228 242.427 119.827 241.739C120.425 241.059 120.725 240.197 120.725 239.152V228.634H123.147V239.699C123.147 240.617 123.433 241.357 124.005 241.918C124.576 242.486 125.313 242.77 126.215 242.77C126.834 242.77 127.412 242.598 127.95 242.255C128.482 241.911 128.912 241.434 129.242 240.824C129.565 240.221 129.727 239.524 129.727 238.731V228.634H132.108Z" fill="white"/>
<path d="M100.607 225.767C101.565 225.995 102.393 226.39 103.091 226.951C103.787 227.52 104.287 228.217 104.589 229.044C104.889 229.878 104.927 230.808 104.703 231.833C104.505 232.736 104.174 233.427 103.71 233.906C103.245 234.392 102.692 234.728 102.051 234.914C101.41 235.099 100.728 235.189 100.005 235.182C99.2734 235.181 98.5465 235.145 97.8237 235.073C96.8784 234.978 96.1138 234.893 95.5296 234.819C94.9375 234.75 94.493 234.763 94.1962 234.858C93.8929 234.951 93.6985 235.193 93.6132 235.582L93.5952 235.664C93.3736 236.676 93.4671 237.525 93.8756 238.212C94.2776 238.898 95.0132 239.368 96.0823 239.622C97.1908 239.886 98.1153 239.839 98.8557 239.483C99.5962 239.127 100.157 238.693 100.539 238.179L102.563 239.524C101.96 240.387 101.272 241.008 100.499 241.385C99.7185 241.767 98.9147 241.972 98.0877 241.998C97.2527 242.029 96.4548 241.955 95.6939 241.774C95.2086 241.658 94.6645 241.464 94.0618 241.191C93.451 240.924 92.8909 240.535 92.3814 240.025C91.8653 239.514 91.4921 238.839 91.2618 238.001C91.0314 237.162 91.0532 236.117 91.3272 234.866L93.5997 224.488L95.9217 225.041L95.4546 227.174L95.5726 227.202C95.8049 226.897 96.1474 226.594 96.6 226.292C97.0527 225.99 97.6139 225.774 98.2838 225.646C98.9537 225.518 99.7281 225.558 100.607 225.767ZM99.7767 227.857C98.8585 227.638 98.0433 227.642 97.3313 227.868C96.6127 228.093 96.0276 228.464 95.576 228.983C95.1178 229.499 94.8168 230.086 94.6731 230.742L94.188 232.957C94.3134 232.857 94.5545 232.796 94.9115 232.773C95.2604 232.756 95.6596 232.761 96.1089 232.788C96.5502 232.821 96.9802 232.859 97.3989 232.901C97.8094 232.948 98.1431 232.985 98.3998 233.01C99.0212 233.071 99.6145 233.072 100.18 233.012C100.737 232.958 101.216 232.788 101.616 232.502C102.009 232.221 102.273 231.773 102.408 231.158C102.592 230.317 102.433 229.61 101.93 229.038C101.419 228.47 100.702 228.077 99.7767 227.857Z" fill="white"/>
<path d="M78.3578 224.682L77.1157 227.467L76.6792 227.248L67.5742 230.663L64.9192 229.33L74.5995 225.737L74.7813 225.828L78.3578 224.682ZM82.8102 220.379L73.8428 239.786L71.697 238.709L80.6644 219.302L82.8102 220.379ZM73.9361 215.925L76.0637 225.865L73.8181 226.652L71.2084 214.556L73.9361 215.925Z" fill="white"/>
<path d="M58.8904 204.95C60.0582 205.921 60.8599 207.027 61.2957 208.268C61.722 209.51 61.7928 210.806 61.5079 212.157C61.2136 213.509 60.5715 214.832 59.5815 216.126C58.5916 217.419 57.4929 218.372 56.2855 218.982C55.0686 219.594 53.8407 219.838 52.6017 219.714C51.3533 219.592 50.1821 219.076 49.088 218.166C48.4568 217.642 47.9174 217.014 47.4697 216.283C47.0221 215.552 46.7346 214.73 46.6071 213.817C46.4755 212.91 46.5681 211.928 46.8849 210.873C47.2017 209.818 47.811 208.701 48.7129 207.522L49.3421 206.7L58.6839 214.465L57.4003 216.142L49.9521 209.952C49.4068 210.664 49.057 211.414 48.9026 212.2C48.743 212.983 48.7893 213.743 49.0415 214.482C49.2885 215.216 49.7486 215.863 50.4219 216.423C51.1636 217.039 51.9521 217.381 52.7875 217.447C53.6135 217.515 54.4039 217.365 55.1588 216.997C55.9137 216.629 56.5576 216.096 57.0903 215.4L57.946 214.282C58.6759 213.328 59.1368 212.388 59.3288 211.462C59.5113 210.538 59.4506 209.667 59.1468 208.849C58.8388 208.037 58.3087 207.319 57.5565 206.693C57.0674 206.287 56.571 205.991 56.0674 205.806C55.5544 205.621 55.0421 205.554 54.5305 205.604C54.0146 205.66 53.51 205.841 53.0167 206.149L51.6204 204.127C52.2964 203.649 53.0425 203.354 53.8587 203.243C54.6707 203.138 55.5083 203.224 56.3713 203.502C57.2302 203.785 58.0699 204.268 58.8904 204.95Z" fill="white"/>
<path d="M31.3849 169.046C31.8111 169.969 32.0312 170.889 32.0452 171.808C32.0531 172.731 31.841 173.573 31.4089 174.334C30.9707 175.099 30.297 175.71 29.3877 176.166C28.5876 176.567 27.8631 176.729 27.2143 176.65C26.5594 176.574 25.9625 176.332 25.4237 175.926C24.8848 175.519 24.3924 175.019 23.9465 174.426C23.4916 173.829 23.0656 173.214 22.6683 172.581C22.1506 171.751 21.7374 171.075 21.4289 170.553C21.1114 170.027 20.8246 169.673 20.5684 169.49C20.3093 169.301 20.007 169.293 19.6615 169.467L19.5887 169.503C18.6916 169.954 18.1128 170.559 17.8522 171.321C17.5887 172.076 17.6948 172.968 18.1706 173.998C18.6639 175.065 19.275 175.79 20.0038 176.171C20.7326 176.553 21.4085 176.739 22.0315 176.729L22.2849 179.217C21.2612 179.264 20.3669 179.09 19.6022 178.696C18.8285 178.298 18.174 177.771 17.6387 177.113C17.0945 176.452 16.6531 175.756 16.3144 175.023C16.0984 174.555 15.9048 173.991 15.7337 173.33C15.5536 172.665 15.4959 171.966 15.5605 171.233C15.6222 170.494 15.8958 169.769 16.3813 169.059C16.8669 168.348 17.6643 167.714 18.7736 167.157L27.975 162.539L29.0084 164.776L27.1172 165.725L27.1697 165.838C27.5429 165.838 27.9839 165.928 28.4929 166.108C29.0019 166.289 29.5133 166.612 30.0273 167.078C30.5412 167.543 30.9938 168.2 31.3849 169.046ZM29.2997 169.673C28.891 168.788 28.3799 168.126 27.7663 167.687C27.1497 167.242 26.5063 166.996 25.8359 166.952C25.1626 166.9 24.535 167.021 23.953 167.313L21.9891 168.299C22.142 168.339 22.3383 168.497 22.5781 168.773C22.809 169.047 23.054 169.375 23.3134 169.759C23.5637 170.139 23.8036 170.513 24.0331 170.88C24.2536 171.244 24.4345 171.539 24.5757 171.763C24.917 172.308 25.2863 172.792 25.6834 173.215C26.0717 173.635 26.4979 173.92 26.9622 174.068C27.4175 174.213 27.9179 174.148 28.4635 173.875C29.2091 173.5 29.64 172.93 29.7562 172.163C29.8635 171.394 29.7113 170.563 29.2997 169.673Z" fill="white"/>
<path d="M15.0165 125.384L12.0697 125.426V124.921L5.16695 117.853V114.782L12.4734 122.313V122.523L15.0165 125.384ZM20.6678 127.698H0V125.216H20.6678V127.698ZM20.6678 117.433L12.9981 123.743L11.3431 121.976L20.6678 114.277V117.433Z" fill="white"/>
<path d="M23.4186 99.6821C23.2001 100.68 22.8213 101.543 22.2824 102.271C21.737 102.997 21.0675 103.517 20.274 103.832C19.4739 104.145 18.5819 104.185 17.5981 103.951C16.7323 103.745 16.0694 103.4 15.6093 102.917C15.1428 102.432 14.8205 101.855 14.6425 101.187C14.4644 100.519 14.3786 99.808 14.3849 99.0543C14.3862 98.2922 14.421 97.5345 14.4893 96.7812C14.5809 95.796 14.6623 94.999 14.7335 94.3902C14.7996 93.7731 14.7872 93.3098 14.6962 93.0005C14.6068 92.6843 14.3751 92.4817 14.0012 92.3928L13.9225 92.3741C12.9518 92.1431 12.1368 92.2406 11.4777 92.6664C10.8201 93.0853 10.3693 93.8519 10.1252 94.9662C9.87224 96.1216 9.91655 97.0851 10.2582 97.8568C10.5999 98.6286 11.017 99.2133 11.5096 99.611L10.2195 101.721C9.39101 101.092 8.79582 100.375 8.43393 99.5698C8.06696 98.756 7.87088 97.9182 7.8457 97.0564C7.81546 96.1861 7.88716 95.3544 8.06082 94.5614C8.17162 94.0556 8.35789 93.4885 8.61967 92.8604C8.8764 92.2238 9.24924 91.64 9.73816 91.109C10.2286 90.5711 10.8762 90.1822 11.681 89.942C12.4857 89.702 13.4883 89.7247 14.6886 90.0102L24.6454 92.3788L24.1154 94.7988L22.0689 94.312L22.042 94.435C22.334 94.6771 22.625 95.0341 22.9151 95.5058C23.2051 95.9776 23.4117 96.5625 23.5348 97.2607C23.658 97.9589 23.6192 98.766 23.4186 99.6821ZM21.4137 98.8167C21.6233 97.8597 21.6195 97.0101 21.4025 96.268C21.187 95.5191 20.8306 94.9092 20.3333 94.4385C19.8375 93.961 19.2747 93.6473 18.6451 93.4975L16.5199 92.992C16.6155 93.1226 16.6743 93.3739 16.6964 93.746C16.7133 94.1096 16.7085 94.5256 16.6819 94.994C16.6501 95.4539 16.6141 95.9021 16.5737 96.3384C16.5284 96.7663 16.4936 97.1141 16.4695 97.3817C16.4105 98.0293 16.4096 98.6477 16.467 99.2367C16.5192 99.8173 16.6825 100.316 16.9568 100.734C17.226 101.143 17.6558 101.418 18.2461 101.559C19.0529 101.751 19.731 101.585 20.2804 101.061C20.8248 100.529 21.2026 99.7807 21.4137 98.8167Z" fill="white"/>
<path d="M29.4042 79.3677L15.4384 72.358L16.4367 70.1974L18.5461 71.2562L18.6162 71.1046C18.0478 70.4924 17.7089 69.7308 17.5997 68.8199C17.4904 67.9089 17.6372 67.0175 18.04 66.1457C18.1159 65.9814 18.2138 65.7776 18.3337 65.5343C18.4536 65.291 18.5488 65.1091 18.6193 64.9889L20.8015 66.0842C20.7483 66.1508 20.6407 66.3109 20.4788 66.5643C20.3138 66.8083 20.1627 67.0788 20.0255 67.3757C19.6985 68.0833 19.5491 68.7866 19.5771 69.4855C19.602 70.1751 19.7885 70.8057 20.1367 71.3774C20.4817 71.9397 20.9694 72.3791 21.5998 72.6955L30.4375 77.1313L29.4042 79.3677Z" fill="white"/>
<path d="M42.9932 56.7242C42.1878 57.7768 41.2217 58.494 40.0949 58.8758C38.9628 59.2532 37.7545 59.2804 36.47 58.9572C35.1803 58.6296 33.8938 57.9325 32.6103 56.8657C31.3374 55.8077 30.4069 54.6621 29.8188 53.4289C29.2306 52.1957 28.9919 50.9613 29.1025 49.7259C29.2131 48.4904 29.6753 47.3409 30.489 46.2774C31.1182 45.4551 31.7468 44.9147 32.3748 44.6564C33.0016 44.3881 33.5772 44.2657 34.1016 44.2889C34.6248 44.3023 35.0462 44.3252 35.3657 44.3575L35.4915 44.1931L29.5267 39.2353L31.0116 37.2946L47.1704 50.7251L45.7358 52.6001L43.8737 51.0524L43.6975 51.2826C43.8094 51.6088 43.933 52.0434 44.0683 52.5863C44.1983 53.1249 44.2082 53.7474 44.0978 54.4539C43.9822 55.1561 43.614 55.9128 42.9932 56.7242ZM41.5219 55.0708C42.1175 54.2923 42.4263 53.4727 42.4481 52.6119C42.4647 51.7468 42.2328 50.8858 41.7524 50.0292C41.2668 49.1681 40.5663 48.3572 39.6511 47.5965C38.7464 46.8445 37.8498 46.3236 36.9616 46.0337C36.068 45.7395 35.2264 45.7036 34.4366 45.9261C33.6415 46.1442 32.9419 46.648 32.3379 47.4374C31.7087 48.2597 31.3869 49.1133 31.3724 49.9982C31.3569 50.8732 31.5888 51.7341 32.0681 52.5809C32.5464 53.4179 33.2116 54.1906 34.0637 54.8988C34.9263 55.6158 35.8149 56.1302 36.7295 56.4419C37.643 56.7438 38.5152 56.796 39.346 56.5987C40.1758 56.3914 40.9011 55.8822 41.5219 55.0708Z" fill="white"/>
<path d="M78.0672 15.4677L79.0305 17.5525L70.8838 21.6415L69.9205 19.5567L78.0672 15.4677Z" fill="white"/>
</g>
</svg>
